<svg xmlns="http://www.w3.org/2000/svg" fill="#FFFFFF" viewBox="0 0 96.903 96.904">
<path d="M96.123 52.261l-22.984-8.418v-25.62c0-.494-.313-.934-.781-1.096L48.826 8.508c-.244-.086-.518-.084-.762 0l-23.488 8.381c-.237.084-.441.238-.542.398-.172.207-.267.471-.267.738v25.807l-22.958 8.19c-.237.085-.441.239-.542.399C.095 52.628 0 52.892 0 53.16v26.043c0 .49.313.932.778 1.094l23.502 8.1c.245.084.518.084.763 0l23.409-8.062 23.36 8.062c.244.084.518.084.763 0l23.508-8.11c.489-.15.82-.596.82-1.109V53.357c0-.494-.311-.934-.78-1.096zM69.042 42.082l-18.063 6.113V28.822l18.063-6.625v19.885zM48.444 12.712l16.801 6.277-16.781 6.215-17.73-6.119 17.71-6.373zM24.698 60.339L6.968 54.22l17.711-6.373 16.801 6.277-16.782 6.215zM45.276 77.216L27.212 83.33V63.957l18.064-6.625v19.884zM72.229 60.339L54.499 54.22l17.711-6.373 16.802 6.277-17.783 6.215zM92.807 77.216L74.743 83.33V63.957l18.063-6.625v19.884z"/>
</svg>
